# xmcd
# 
# Track frame offsets:
#     150
#     25171
#     49412
#     80285
#     109876
#     136646
#     159828
#     187134
#     210875
# 
# Disc length: 3069
# 
# Revision: 0
# Processed by: cddbd v1.5.2PL0 Copyright (c) Steve Scherf et al.
# Submitted via: fre:ac v1.0.17
# 
DISCID=6b0bfb09
DTITLE=Elliot Sharp's Terraplane - 4am Always
DYEAR=2013
DGENRE=Blues
TTITLE0=Ain't Got No 
TTITLE1=U.A.V. Blues 
TTITLE2=New Steel 
TTITLE3=Space Rock Comin' 
TTITLE4=Sentenced To Life 
TTITLE5=I Can't Acquiesce 
TTITLE6=Sunset To Sunrise 
TTITLE7=Up To The Bottom 
TTITLE8=Subtropical 
EXTD=
EXTT0=
EXTT1=
EXTT2=
EXTT3=
EXTT4=
EXTT5=
EXTT6=
EXTT7=
EXTT8=
PLAYORDER=
